<svg width="35" height="35" fill="none" xmlns="http://www.w3.org/2000/svg"><path d="M17.776 1.281c-.045 0-.087.011-.13.011-.132-.003-.263-.012-.396-.01h.526zm-.204 20.303c-.024 0-.045-.004-.069-.004-.017 0-.034.004-.051.004h.12zm-7.42-7.47c.018-.004.032-.024.052-.03 1.174 4.249 4.213 7.428 7.3 7.495 2.812-.13 6.266-3.251 7.416-7.478.529.032 1.058-.591 1.206-1.46.154-.905-.168-1.714-.713-1.807-.035-.006-.072.016-.105.017-.159-6.99-3.48-9.455-7.661-9.561-4.313.021-8.174 3.018-7.93 9.564-.041 0-.08-.026-.12-.019-.547.093-.867.902-.713 1.808.15.903.718 1.562 1.267 1.47zm13.162 8.679l-3.918 7.667-.62-4.986.968-.794h-4.485l.968.794-.62 4.986-3.914-7.667C4.887 23.71 0 26.627 0 33.718h35c.002-7.093-4.883-10.007-11.686-10.925z" fill="#1C4685"/></svg>