<svg width="150" height="50" fill="none" xmlns="http://www.w3.org/2000/svg"><path d="M68.032 20l-.018-7.542-3.708 6.21H63.01l-3.708-6.066V20h-2.736V7.4h2.412l4.716 7.83 4.644-7.83h2.412l.018 12.6h-2.736zm6.406-12.6h2.898v8.208L83.348 7.4h2.736V20h-2.88v-8.19L77.192 20h-2.754V7.4zm20.777 0c1.116 0 2.082.186 2.898.558.828.372 1.464.9 1.908 1.584.444.684.666 1.494.666 2.43 0 .924-.222 1.734-.666 2.43-.444.684-1.08 1.212-1.908 1.584-.816.36-1.782.54-2.898.54h-2.538V20h-2.916V7.4h5.454zm-.162 6.75c.876 0 1.542-.186 1.998-.558.456-.384.684-.924.684-1.62 0-.708-.228-1.248-.684-1.62-.456-.384-1.122-.576-1.998-.576h-2.376v4.374h2.376zM61.444 36.924h-2.016V42H56.53V29.4h2.898v5.094h2.088l3.312-5.094h3.078l-4.122 6.084L68.032 42H64.72l-3.276-5.076zm17.224-1.494c.768.228 1.356.6 1.764 1.116.408.516.612 1.152.612 1.908 0 1.116-.426 1.986-1.278 2.61-.84.624-2.046.936-3.618.936h-6.21V29.4h5.868c1.464 0 2.604.282 3.42.846.816.564 1.224 1.368 1.224 2.412 0 .624-.156 1.176-.468 1.656-.312.468-.75.84-1.314 1.116zm-5.832-.81h2.718c.636 0 1.116-.126 1.44-.378.324-.264.486-.648.486-1.152 0-.492-.168-.87-.504-1.134-.324-.264-.798-.396-1.422-.396h-2.718v3.06zm3.204 5.22c1.368 0 2.052-.54 2.052-1.62 0-1.044-.684-1.566-2.052-1.566h-3.204v3.186h3.204zm17.606-.18V42H83.89V29.4h9.522v2.34h-6.624v2.736h5.85v2.268h-5.85v2.916h6.858zm8.818 2.556c-1.284 0-2.448-.276-3.492-.828a6.416 6.416 0 01-2.448-2.322c-.588-.996-.882-2.118-.882-3.366 0-1.248.294-2.364.882-3.348a6.242 6.242 0 012.448-2.322c1.044-.564 2.214-.846 3.51-.846 1.092 0 2.076.192 2.952.576a5.915 5.915 0 012.232 1.656l-1.872 1.728c-.852-.984-1.908-1.476-3.168-1.476-.78 0-1.476.174-2.088.522a3.648 3.648 0 00-1.44 1.422c-.336.612-.504 1.308-.504 2.088s.168 1.476.504 2.088a3.774 3.774 0 001.44 1.44c.612.336 1.308.504 2.088.504 1.26 0 2.316-.498 3.168-1.494l1.872 1.728a5.835 5.835 0 01-2.232 1.674c-.888.384-1.878.576-2.97.576zm17.15-10.44h-4.032V42h-2.88V31.776h-4.014V29.4h10.926v2.376zm8.207 10.44c-1.308 0-2.49-.282-3.546-.846a6.382 6.382 0 01-2.466-2.322c-.588-.996-.882-2.112-.882-3.348 0-1.236.294-2.346.882-3.33a6.34 6.34 0 012.466-2.34c1.056-.564 2.238-.846 3.546-.846 1.308 0 2.484.282 3.528.846a6.34 6.34 0 012.466 2.34c.6.984.9 2.094.9 3.33 0 1.236-.3 2.352-.9 3.348a6.382 6.382 0 01-2.466 2.322c-1.044.564-2.22.846-3.528.846zm0-2.484c.744 0 1.416-.168 2.016-.504a3.682 3.682 0 001.404-1.44c.348-.612.522-1.308.522-2.088s-.174-1.476-.522-2.088a3.558 3.558 0 00-1.404-1.422 3.944 3.944 0 00-2.016-.522c-.744 0-1.416.174-2.016.522a3.68 3.68 0 00-1.422 1.422c-.336.612-.504 1.308-.504 2.088s.168 1.476.504 2.088a3.81 3.81 0 001.422 1.44c.6.336 1.272.504 2.016.504zm18.41-4.302c.768.228 1.356.6 1.764 1.116.408.516.612 1.152.612 1.908 0 1.116-.426 1.986-1.278 2.61-.84.624-2.046.936-3.618.936h-6.21V29.4h5.868c1.464 0 2.604.282 3.42.846.816.564 1.224 1.368 1.224 2.412 0 .624-.156 1.176-.468 1.656-.312.468-.75.84-1.314 1.116zm-5.832-.81h2.718c.636 0 1.116-.126 1.44-.378.324-.264.486-.648.486-1.152 0-.492-.168-.87-.504-1.134-.324-.264-.798-.396-1.422-.396h-2.718v3.06zm3.204 5.22c1.368 0 2.052-.54 2.052-1.62 0-1.044-.684-1.566-2.052-1.566h-3.204v3.186h3.204zM48.386 16.128a24.931 24.931 0 00-5.708-8.805C37.956 2.6 31.678 0 25 0 18.322 0 12.044 2.6 7.322 7.322 2.6 12.044 0 18.322 0 25c0 6.678 2.6 12.956 7.322 17.678C12.044 47.4 18.322 50 25 50c6.678 0 12.956-2.6 17.678-7.322C47.4 37.956 50 31.678 50 25c0-3.08-.555-6.076-1.614-8.872zM25 1.562c2.092 0 4.142.274 6.11.802-3.73 1.064-6.536.794-8.332.317a10.758 10.758 0 01-1.995-.741A23.721 23.721 0 0125 1.563zm-6.4.882c.577.429 1.803 1.206 3.668 1.718 1.015.279 2.317.5 3.887.5 2.037 0 4.529-.375 7.435-1.48a23.382 23.382 0 017.983 5.245 23.679 23.679 0 012.973 3.629C41.08 9.95 36.31 9.313 30.358 10.164c-7.2 1.03-12.602-.044-15.867-1.126-2.118-.702-3.635-1.499-4.515-2.027A23.22 23.22 0 0118.6 2.444zM8.426 8.427c.111-.11.224-.22.337-.328.867.558 2.59 1.536 5.151 2.394 6.227 2.086 12.5 1.813 16.664 1.218 3.904-.559 9.384-.702 13.323 1.782 1.833 1.157 2.768 2.569 3.015 3.17a23.282 23.282 0 011.379 5.75c-.815.605-2.52 1.51-5.035 1.964-6.344 1.148-13.694-1.119-18.742-3.223-4.263-1.777-8.191-2.631-11.678-2.535-2.835.077-5.385.776-7.58 2.077a13.81 13.81 0 00-3.671 3.162c.278-5.831 2.68-11.274 6.837-15.43zM25 48.437c-1.694 0-3.36-.18-4.979-.528a11.98 11.98 0 012.428-1.041c3.622-1.116 7.49-.636 10.552.174A23.452 23.452 0 0125 48.437zm16.573-6.864a23.467 23.467 0 01-6.316 4.512c-3.492-1.159-8.6-2.19-13.382-.675-1.913.606-3.19 1.437-3.874 1.968a23.323 23.323 0 01-9.574-5.805 23.847 23.847 0 01-1.919-2.167c2.214-1.046 9.956-3.987 19.736.37 3.256 1.45 6.186 1.964 8.704 1.964a17.65 17.65 0 006.181-1.1c.8-.299 1.519-.633 2.153-.972a23.75 23.75 0 01-1.71 1.905zm3.959-5.397c-.018.018-1.778 1.817-4.949 3-4.278 1.596-8.888 1.318-13.703-.827-6.418-2.86-11.988-2.706-15.53-2.073-2.869.513-4.889 1.4-5.777 1.845a23.217 23.217 0 01-3.954-11.498c.375-.728 1.687-2.951 4.44-4.583 1.962-1.164 4.258-1.789 6.824-1.859 3.265-.089 6.977.724 11.035 2.415 4.223 1.76 8.193 2.899 11.798 3.383 2.913.391 5.6.36 7.988-.095 2.19-.416 3.735-1.115 4.718-1.695a23.313 23.313 0 01-2.838 12.038l-.052-.05z" fill="#1C4685"/></svg>